<?xml version="1.0" encoding="UTF-8"?>
<svg id="Layer_1" data-name="Layer 1" xmlns="http://www.w3.org/2000/svg" viewBox="0 0 100 100">
  <defs>
    <style>
      .cls-1 {
        fill: #28306a;
        fill-rule: evenodd;
      }
    </style>
  </defs>
  <path class="cls-1" d="M74.39,17.04c.09-.04.18-.07.27-.09l11.44-3.67L53.33,2.79,20.56,13.29l32.77,10.5,21.06-6.75h0ZM31.85,31.51v-11.82l21.08,6.76c.26.08.54.09.81,0l19.86-6.37v11.43c-3,.74-6.2,1.32-9.56,1.73-3.61.44-7.4.67-11.31.67s-7.7-.23-11.31-.67c-3.36-.41-6.56-.99-9.56-1.73h0ZM85.47,24.39c-.15-.15-.36-.25-.59-.25s-.44.09-.59.25c-.15.15-.25.36-.25.59s.09.44.25.59c.15.15.36.25.59.25s.44-.09.59-.25c.15-.15.25-.36.25-.59s-.09-.44-.25-.59ZM86.2,21.75c.43.18.82.44,1.14.76.63.63,1.02,1.51,1.02,2.47s-.39,1.84-1.02,2.47-1.51,1.02-2.47,1.02-1.84-.39-2.47-1.02c-.63-.63-1.02-1.51-1.02-2.47s.39-1.84,1.02-2.47c.32-.32.71-.59,1.14-.76v-4.86l-7.29,2.34v13.32c0,.66-.48,1.2-1.1,1.31-3.39.88-7.02,1.56-10.81,2.02-3.72.45-7.62.69-11.62.69s-7.9-.24-11.62-.69c-3.79-.46-7.41-1.15-10.81-2.02-.63-.11-1.1-.65-1.1-1.31v-13.71l-13.37-4.29c-.7-.22-1.08-.97-.86-1.67.14-.43.47-.74.87-.86L52.93.13c.28-.09.56-.08.81,0l37.1,11.89c.7.22,1.08.97.86,1.67-.14.43-.47.74-.87.86l-4.63,1.49v5.71h0ZM22.68,66.33l-13.34,1.02,2.5,29.83,13.34-1.02-2.5-29.83ZM25.6,69.35l2.04,24.31,26.56-.73c.06,0,.12,0,.18,0,1.19.07,2.31-.04,3.35-.35,1.04-.3,2.03-.8,2.97-1.49h0s.04-.02.06-.04l28.39-18.73s.04-.03.06-.04l.13-.08c.74-.52,1.21-1.28,1.38-2.1.16-.81.02-1.67-.46-2.41l-.08-.12c-.55-.77-1.37-1.25-2.27-1.42-.95-.17-1.97,0-2.86.52l-17.34,10.36c.13.76.12,1.55-.07,2.34-.02.08.01-.05-.03.12h0c-.02.06-.04.12-.06.18-.64,1.52-1.73,2.8-3.08,3.59-1.3.75-2.83,1.04-4.45.66l-18.45-4.38c-.71-.17-1.16-.89-.99-1.6s.89-1.16,1.6-.99l18.45,4.38c.92.22,1.79.05,2.52-.37.82-.47,1.49-1.26,1.91-2.21.21-.88.03-1.76-.42-2.48-.47-.74-1.22-1.32-2.16-1.56-.1-.03.07.02-.08-.02l-25.25-5.99c-.43-.1-5.45.24-9.56.51-.68.05-1.34.09-1.98.13h0ZM7.84,64.8l15.95-1.22c.73-.05,1.36.49,1.42,1.21h0l.16,1.91c.61-.04,1.31-.09,2.03-.14,4.29-.29,9.53-.65,10.35-.45l25.25,5.99c.08.02-.04,0,.13.04,1.49.39,2.72,1.27,3.54,2.41l17.02-10.16c1.45-.87,3.14-1.14,4.69-.85,1.55.29,2.99,1.13,3.96,2.5.07.1.12.17.14.2.87,1.35,1.13,2.92.84,4.38-.29,1.45-1.13,2.81-2.46,3.74-.1.07-.17.12-.21.15l-.04.03-28.34,18.69h0c-1.19.87-2.45,1.51-3.8,1.9-1.33.39-2.73.54-4.21.45l-26.4.73.08.96c.06.73-.48,1.37-1.21,1.43h-.05s-15.95,1.23-15.95,1.23c-.73.05-1.36-.49-1.42-1.21h0l-2.72-32.47c-.06-.73.48-1.37,1.21-1.43h.05s0,0,0,0ZM67.13,60.51h18.63c.17,0,.35-.04.52-.11.67-.29.99-1.07.7-1.74-.56-1.31-.99-2.72-1.29-4.2-.29-1.43-.44-2.93-.44-4.48s.15-3.04.44-4.48c.29-1.45.71-2.83,1.25-4.12.09-.18.15-.39.15-.6,0-.73-.6-1.33-1.33-1.33H26.93c-2.46,0-4.68,1.23-6.27,3.2-1.53,1.89-2.48,4.49-2.48,7.32s.95,5.43,2.48,7.32c1.59,1.97,3.81,3.2,6.27,3.2h30.28v3.06h0c0,.35.14.7.41.96.53.5,1.37.48,1.87-.05l2.71-2.87,2.56,2.79c.24.3.62.49,1.03.49.73,0,1.33-.6,1.33-1.33v-3.06h0ZM57.21,54.52v3.34h-30.28c-1.62,0-3.11-.84-4.21-2.2-1.16-1.44-1.88-3.44-1.88-5.66s.72-4.22,1.88-5.66c1.1-1.36,2.59-2.2,4.21-2.2h56.91c-.31.93-.56,1.89-.76,2.87-.1.48-.18.96-.24,1.45-.09-.02-.19-.03-.29-.03H29.99c-.73,0-1.33.6-1.33,1.33s.6,1.33,1.33,1.33h52.56s.04,0,.07,0c-.01.31-.02.62-.02.93,0,.63.02,1.25.07,1.87h-49.61c-.73,0-1.33.6-1.33,1.33s.6,1.33,1.33,1.33h24.16,0ZM64.48,54.52v5.64l-1.27-1.39c-.5-.54-1.34-.57-1.87-.08-.05.05-.1.09-.14.15l-1.33,1.4v-5.73h4.61ZM83,54.52c.03.16.06.31.09.47.2.98.45,1.94.76,2.87h-16.71v-3.34h15.86Z"/>
</svg>