<?xml version="1.0" encoding="UTF-8"?>
<svg id="Layer_1" data-name="Layer 1" xmlns="http://www.w3.org/2000/svg" viewBox="0 0 100 100">
  <defs>
    <style>
      .cls-1 {
        fill: #28306a;
        stroke: #fff;
        stroke-miterlimit: 10;
        stroke-width: .75px;
      }
    </style>
  </defs>
  <path class="cls-1" d="M78.13,27.84c5.47,0,9.93-4.45,9.93-9.93s-4.45-9.93-9.93-9.93-9.93,4.45-9.93,9.93,4.45,9.93,9.93,9.93ZM78.13,11.57c3.5,0,6.34,2.85,6.34,6.34s-2.85,6.34-6.34,6.34-6.34-2.85-6.34-6.34,2.85-6.34,6.34-6.34Z"/>
  <path class="cls-1" d="M88.15,29.89h-21.44c-2.27,0-4.42.86-6.06,2.42l-3.46,3.29-2.13-1.65V9.77c0-.99-.8-1.79-1.79-1.79H9.63c-.99,0-1.79.8-1.79,1.79v29.55c0,.99.8,1.79,1.79,1.79h34.83l8.84,6.61c2.42,1.81,5.69,2.04,8.27.61l3.59-1.79v29.12c0,4.07,3.31,7.38,7.38,7.38,2.25,0,4.24-1.03,5.6-2.62,1.36,1.59,3.35,2.62,5.6,2.62,4.07,0,7.38-3.31,7.38-7.38v-19.04c.69.29,1.45.45,2.24.45,3.21,0,5.82-2.61,5.82-5.82v-10.35c0-6.08-4.95-11.03-11.03-11.03ZM42.85,32.48c-1.08,1.51-1.33,3.37-.9,5.05H11.42V11.57h40.07v19.61c-2.78-2.11-6.66-1.46-8.64,1.3ZM95.6,51.27c0,1.23-1.01,2.24-2.24,2.24s-2.24-1.01-2.24-2.24v-7.61c0-.99-.8-1.79-1.79-1.79s-1.79.8-1.79,1.79v32.02c0,2.1-1.71,3.8-3.8,3.8s-3.8-1.71-3.8-3.8v-15.9c0-.99-.8-1.79-1.79-1.79s-1.79.8-1.79,1.79v15.9c0,2.1-1.71,3.8-3.8,3.8s-3.8-1.71-3.8-3.8c0-.49,0-31.58-.01-32.07-.04-1.35-1.48-2.1-2.58-1.55l-6.24,3.12c-1.42.78-3.17.66-4.46-.31l-9.07-6.79s-.05-.03-.07-.05c-1.08-.81-1.32-2.36-.53-3.46.81-1.14,2.43-1.41,3.57-.52l6.88,5.33c.7.54,1.69.49,2.33-.12l4.58-4.34c.97-.92,2.25-1.43,3.59-1.43h21.44c4.11,0,7.44,3.34,7.44,7.44v10.35Z"/>
  <path class="cls-1" d="M42.42,17.35h-21.94c-.99,0-1.79.8-1.79,1.79s.8,1.79,1.79,1.79h21.94c.99,0,1.79-.8,1.79-1.79s-.8-1.79-1.79-1.79Z"/>
  <path class="cls-1" d="M42.42,24.25h-21.94c-.99,0-1.79.8-1.79,1.79s.8,1.79,1.79,1.79h21.94c.99,0,1.79-.8,1.79-1.79s-.8-1.79-1.79-1.79Z"/>
  <path class="cls-1" d="M54.33,72.93c1.75-1.88,2.82-4.39,2.82-7.16,0-5.81-4.73-10.55-10.55-10.55s-10.55,4.73-10.55,10.55c0,2.76,1.08,5.27,2.82,7.16-2.89.54-5.37,2.24-6.94,4.61-1.57-2.36-4.05-4.06-6.94-4.61,1.75-1.88,2.82-4.39,2.82-7.16,0-5.81-4.73-10.55-10.55-10.55s-10.55,4.73-10.55,10.55c0,2.76,1.08,5.27,2.82,7.16-4.96.94-8.73,5.3-8.73,10.53v6.77c0,.99.8,1.79,1.79,1.79h58.66c.99,0,1.79-.8,1.79-1.79v-6.77c0-5.23-3.77-9.59-8.73-10.53ZM17.28,58.81c3.84,0,6.96,3.12,6.96,6.96s-3.12,6.96-6.96,6.96-6.96-3.12-6.96-6.96,3.12-6.96,6.96-6.96ZM30.15,88.43h-5.17v-4.76c0-.99-.8-1.79-1.79-1.79s-1.79.8-1.79,1.79v4.76h-8.24v-4.76c0-.99-.8-1.79-1.79-1.79s-1.79.8-1.79,1.79v4.76h-5.17v-4.98c0-3.94,3.2-7.14,7.14-7.14h11.47c3.94,0,7.14,3.2,7.14,7.14v4.98ZM46.6,58.81c3.84,0,6.96,3.12,6.96,6.96s-3.12,6.96-6.96,6.96-6.96-3.12-6.96-6.96,3.12-6.96,6.96-6.96ZM59.48,88.43h-5.17v-4.76c0-.99-.8-1.79-1.79-1.79s-1.79.8-1.79,1.79v4.76h-8.23v-4.76c0-.99-.8-1.79-1.79-1.79s-1.79.8-1.79,1.79v4.76h-5.17v-4.98c0-3.94,3.2-7.14,7.14-7.14h11.47c3.94,0,7.14,3.2,7.14,7.14v4.98Z"/>
</svg>