<?xml version="1.0" encoding="UTF-8"?>
<svg id="Layer_1" data-name="Layer 1" xmlns="http://www.w3.org/2000/svg" viewBox="0 0 100 100">
  <defs>
    <style>
      .cls-1, .cls-2 {
        fill: #28306a;
        stroke: #fff;
        stroke-miterlimit: 10;
      }

      .cls-2 {
        stroke-width: 2px;
      }
    </style>
  </defs>
  <path class="cls-1" d="M51.94,79.16c0,1.07-.87,1.94-1.94,1.94s-1.94-.87-1.94-1.94.87-1.94,1.94-1.94,1.94.87,1.94,1.94Z"/>
  <path class="cls-1" d="M93.36,61.67c0-6.43-5.23-11.67-11.67-11.67s-11.67,5.23-11.67,11.67,5.23,11.67,11.67,11.67,11.67-5.23,11.67-11.67ZM81.69,69.44c-4.29,0-7.78-3.49-7.78-7.78s3.49-7.78,7.78-7.78,7.78,3.49,7.78,7.78-3.49,7.78-7.78,7.78Z"/>
  <path class="cls-1" d="M81.69,73.33c-4.9,0-9.79,2.03-13.11,5.33-4.38-5.76-11.14-9.22-18.58-9.22s-14.03,3.25-18.58,9.22c-3.33-3.3-8.21-5.33-13.11-5.33C8.51,73.33.23,81.35.23,90.83v3.89c0,1.07.87,1.94,1.94,1.94h95.66c1.07,0,1.94-.87,1.94-1.94v-3.89c0-9.49-8.28-17.5-18.08-17.5ZM4.11,90.83c0-7.38,6.5-13.61,14.19-13.61,4.21,0,8.38,1.87,10.97,4.83-1.71,3.3-2.61,6.98-2.61,10.72H4.11v-1.94ZM50,73.33c10.82,0,19.44,8.78,19.44,19.44H30.56c0-10.81,8.8-19.44,19.44-19.44ZM95.89,92.78h-22.55c0-3.74-.9-7.42-2.61-10.72,2.58-2.97,6.76-4.83,10.97-4.83,7.69,0,14.19,6.23,14.19,13.61v1.94Z"/>
  <path class="cls-1" d="M29.97,61.67c0-6.43-5.23-11.67-11.67-11.67s-11.67,5.23-11.67,11.67,5.23,11.67,11.67,11.67,11.67-5.23,11.67-11.67ZM18.31,69.44c-4.29,0-7.78-3.49-7.78-7.78s3.49-7.78,7.78-7.78,7.78,3.49,7.78,7.78-3.49,7.78-7.78,7.78Z"/>
  <path class="cls-1" d="M65.55,53.89c0-8.58-6.98-15.55-15.55-15.55s-15.55,6.98-15.55,15.55,6.98,15.55,15.55,15.55,15.55-6.98,15.55-15.55ZM50,65.55c-6.43,0-11.67-5.23-11.67-11.67s5.23-11.67,11.67-11.67,11.67,5.23,11.67,11.67-5.23,11.67-11.67,11.67Z"/>
  <path class="cls-2" d="M65.39,14.64c-.23-.7-.84-1.22-1.57-1.32l-8.39-1.22-3.75-7.68c-.33-.67-1-1.09-1.75-1.09s-1.42.42-1.75,1.09l-3.75,7.68-8.39,1.22c-.73.11-1.34.62-1.57,1.32s-.04,1.48.49,1.99l6.07,5.92-1.43,8.36c-.13.73.17,1.47.77,1.9.6.43,1.39.49,2.05.15l7.5-3.95,7.51,3.95c.65.34,1.45.29,2.05-.15.6-.44.9-1.17.77-1.9l-1.43-8.36,6.07-5.92c.53-.52.72-1.29.49-1.99ZM55.38,20.48c-.46.45-.67,1.09-.56,1.72l.94,5.48-4.92-2.59c-.57-.3-1.24-.3-1.81,0l-4.92,2.59.94-5.48c.11-.63-.1-1.27-.56-1.72l-3.98-3.88,5.5-.8c.64-.09,1.19-.49,1.47-1.07l2.46-5.03,2.46,5.03c.28.58.83.98,1.47,1.07l5.5.8-3.98,3.88Z"/>
  <path class="cls-2" d="M94.45,29.22c-.23-.7-.84-1.22-1.57-1.32l-5.68-.83-2.54-5.15c-.33-.66-1-1.08-1.74-1.08h0c-.74,0-1.42.42-1.74,1.08l-2.54,5.15-5.68.83c-.73.11-1.34.62-1.57,1.32-.23.7-.04,1.48.49,1.99l4.11,4.01-.97,5.66c-.12.73.17,1.47.77,1.9.6.44,1.39.49,2.05.15l5.08-2.67,5.08,2.67c.65.34,1.45.29,2.05-.15.6-.43.9-1.17.77-1.9l-.97-5.66,4.11-4.01c.53-.52.72-1.29.49-1.99ZM86.4,33.15c-.46.45-.67,1.09-.56,1.72l.48,2.78-2.5-1.31c-.57-.3-1.24-.3-1.81,0l-2.5,1.31.48-2.78c.11-.63-.1-1.27-.56-1.72l-2.02-1.97,2.8-.41c.63-.09,1.18-.49,1.46-1.06l1.25-2.53,1.25,2.53c.28.57.83.97,1.46,1.06l2.8.41-2.02,1.97Z"/>
  <path class="cls-2" d="M28.34,29.22c-.23-.7-.84-1.22-1.57-1.32l-5.68-.83-2.54-5.15c-.33-.66-1-1.08-1.74-1.08s-1.42.42-1.74,1.08l-2.54,5.15-5.68.83c-.73.11-1.34.62-1.57,1.32-.23.7-.04,1.48.49,1.99l4.11,4.01-.97,5.66c-.13.73.17,1.47.77,1.9s1.39.49,2.05.15l5.08-2.67,5.08,2.67c.66.35,1.45.28,2.05-.15.6-.43.9-1.17.77-1.9l-.97-5.66,4.11-4.01c.53-.52.72-1.29.49-1.99ZM20.29,33.15c-.46.45-.67,1.09-.56,1.72l.48,2.78-2.5-1.31c-.57-.3-1.24-.3-1.81,0l-2.5,1.31.48-2.78c.11-.63-.1-1.27-.56-1.72l-2.02-1.97,2.8-.41c.63-.09,1.18-.49,1.46-1.06l1.25-2.53,1.25,2.53c.28.57.83.97,1.46,1.06l2.8.41-2.02,1.97Z"/>
  <path class="cls-1" d="M58.52,79.77c-.9-.59-2.1-.34-2.69.56-.59.9-.34,2.1.56,2.69,1.8,1.18,3.23,2.83,4.16,4.76.46.97,1.62,1.38,2.59.92.97-.46,1.38-1.62.92-2.59-1.23-2.58-3.14-4.77-5.53-6.34Z"/>
</svg>