<?xml version="1.0" encoding="UTF-8"?>
<svg id="Layer_1" data-name="Layer 1" xmlns="http://www.w3.org/2000/svg" viewBox="0 0 100 100">
  <defs>
    <style>
      .cls-1 {
        fill: #28306a;
      }
    </style>
  </defs>
  <path class="cls-1" d="M7.71,29.2h15.4c.81,0,1.46-.65,1.46-1.46s-.65-1.46-1.46-1.46H7.71c-.81,0-1.46.65-1.46,1.46s.65,1.46,1.46,1.46Z"/>
  <path class="cls-1" d="M22.59,36.23h-6.09c-.81,0-1.46.65-1.46,1.46s.65,1.46,1.46,1.46h6.09c.81,0,1.46-.65,1.46-1.46s-.65-1.46-1.46-1.46Z"/>
  <path class="cls-1" d="M1.6,46.36h14.9c.81,0,1.46-.65,1.46-1.46s-.65-1.46-1.46-1.46H1.6c-.81,0-1.46.65-1.46,1.46s.65,1.46,1.46,1.46Z"/>
  <path class="cls-1" d="M24.58,72.26c0-.81-.65-1.46-1.46-1.46H7.71c-.81,0-1.46.65-1.46,1.46s.65,1.46,1.46,1.46h15.4c.81,0,1.46-.65,1.46-1.46Z"/>
  <path class="cls-1" d="M22.59,60.84h-6.09c-.81,0-1.46.65-1.46,1.46s.65,1.46,1.46,1.46h6.09c.81,0,1.46-.65,1.46-1.46s-.65-1.46-1.46-1.46Z"/>
  <path class="cls-1" d="M17.96,55.1c0-.81-.65-1.46-1.46-1.46H1.6c-.81,0-1.46.65-1.46,1.46s.65,1.46,1.46,1.46h14.9c.81,0,1.46-.65,1.46-1.46Z"/>
  <path class="cls-1" d="M62.37,32.44c.81,0,1.46-.65,1.46-1.46v-2.23c0-.81-.65-1.46-1.46-1.46s-1.46.65-1.46,1.46v2.23c0,.81.65,1.46,1.46,1.46Z"/>
  <path class="cls-1" d="M78.43,33.94c-.57-.57-1.5-.57-2.07,0l-1.58,1.58c-.57.57-.57,1.5,0,2.07.57.57,1.5.57,2.07,0l1.58-1.58c.57-.57.57-1.5,0-2.07Z"/>
  <path class="cls-1" d="M81.39,48.54c-.81,0-1.46.65-1.46,1.46s.65,1.46,1.46,1.46h2.23c.81,0,1.46-.65,1.46-1.46s-.65-1.46-1.46-1.46h-2.23Z"/>
  <path class="cls-1" d="M76.86,62.42c-.57-.57-1.5-.57-2.07,0-.57.57-.57,1.5,0,2.07l1.58,1.58c.57.57,1.5.57,2.07,0,.57-.57.57-1.5,0-2.07l-1.58-1.58Z"/>
  <path class="cls-1" d="M60.91,69.02v2.23c0,.81.65,1.46,1.46,1.46s1.46-.65,1.46-1.46v-2.23c0-.81-.65-1.46-1.46-1.46s-1.46.65-1.46,1.46Z"/>
  <path class="cls-1" d="M47.89,62.42l-1.58,1.58c-.57.57-.57,1.5,0,2.07.57.57,1.5.57,2.07,0l1.58-1.58c.57-.57.57-1.5,0-2.07-.57-.57-1.5-.57-2.07,0Z"/>
  <path class="cls-1" d="M41.12,48.54c-.81,0-1.46.65-1.46,1.46s.65,1.46,1.46,1.46h2.23c.81,0,1.46-.65,1.46-1.46s-.65-1.46-1.46-1.46h-2.23Z"/>
  <path class="cls-1" d="M49.96,35.52l-1.58-1.58c-.57-.57-1.5-.57-2.07,0-.57.57-.57,1.5,0,2.07l1.58,1.58c.57.57,1.5.57,2.07,0,.57-.57.57-1.5,0-2.07Z"/>
  <path class="cls-1" d="M70.23,50c0-.81-.65-1.46-1.46-1.46h-4.93v-10.84c0-.81-.65-1.46-1.46-1.46s-1.46.65-1.46,1.46v12.31c0,.81.65,1.46,1.46,1.46h6.39c.81,0,1.46-.65,1.46-1.46Z"/>
  <path class="cls-1" d="M90.07,49.76c.81-.05,1.42-.74,1.37-1.55-.93-15.33-13.7-27.34-29.07-27.34s-29.12,13.06-29.12,29.12,13.06,29.12,29.12,29.12c14.39,0,26.66-10.54,28.8-24.76.12-.8-.43-1.54-1.23-1.66-.8-.12-1.54.43-1.66,1.23-1.92,12.78-12.95,22.28-25.91,22.28-14.45,0-26.2-11.75-26.2-26.2s11.75-26.2,26.2-26.2,25.31,10.8,26.15,24.59c.05.8.74,1.42,1.55,1.37h0Z"/>
  <path class="cls-1" d="M62.37,12.51c-5.14,0-10.17,1.07-14.81,3.06h-25.77c-.81,0-1.46.65-1.46,1.46s.65,1.46,1.46,1.46h20.28c-2.74,1.76-5.27,3.89-7.49,6.35-.54.6-.5,1.52.1,2.06.6.54,1.52.5,2.06-.1,6.54-7.23,15.88-11.37,25.63-11.37,19.06,0,34.56,15.51,34.56,34.56s-15.51,34.56-34.56,34.56-34.56-15.51-34.56-34.56c0-6.67,1.91-13.15,5.51-18.73.44-.68.24-1.58-.43-2.02-.68-.44-1.58-.24-2.02.43-3.91,6.05-5.98,13.08-5.98,20.32,0,13.2,6.86,24.82,17.19,31.5h-20.29c-.81,0-1.46.65-1.46,1.46s.65,1.46,1.46,1.46h25.75c4.55,1.97,9.56,3.06,14.83,3.06,20.67,0,37.49-16.82,37.49-37.49S83.04,12.51,62.37,12.51Z"/>
</svg>